<?xml version="1.0" standalone="no"?>
<!DOCTYPE svg PUBLIC "-//W3C//DTD SVG 20010904//EN"
 "http://www.w3.org/TR/2001/REC-SVG-20010904/DTD/svg10.dtd">
<svg version="1.0" xmlns="http://www.w3.org/2000/svg"
 width="512.000000pt" height="512.000000pt" viewBox="0 0 512.000000 512.000000"
 preserveAspectRatio="xMidYMid meet">
<metadata>
Created by potrace 1.14, written by Peter Selinger 2001-2017
</metadata>
<g transform="translate(0.000000,512.000000) scale(0.100000,-0.100000)"
fill="#000000" stroke="none">
<path d="M1945 5113 c-24 -7 -228 -101 -468 -217 -98 -47 -180 -86 -182 -86
-2 0 -56 -25 -121 -56 -66 -31 -148 -70 -184 -86 -380 -178 -423 -206 -519
-328 -38 -48 -117 -190 -105 -190 2 0 -1 -12 -6 -26 -8 -20 -159 -599 -175
-673 -2 -9 -17 -68 -34 -131 -49 -191 -102 -399 -106 -418 -2 -9 -12 -47 -21
-85 -22 -86 -12 -111 54 -129 l45 -13 3 -230 c1 -127 5 -246 8 -265 3 -19 8
-57 11 -85 3 -27 8 -57 10 -65 2 -8 7 -31 10 -50 38 -226 156 -537 293 -770
48 -83 173 -266 191 -280 3 -3 24 -27 46 -55 51 -64 235 -249 300 -300 27 -22
61 -50 75 -63 50 -45 247 -172 360 -231 215 -112 420 -185 665 -236 141 -30
304 -43 510 -41 339 4 605 57 903 182 191 80 469 241 562 326 14 13 48 41 75
63 83 65 256 244 341 350 132 167 247 356 324 536 17 41 37 88 45 104 48 111
111 349 136 515 5 36 12 79 15 95 3 17 7 135 8 264 l3 234 43 13 c24 7 47 19
51 26 13 21 10 88 -7 153 -8 33 -49 193 -90 355 -41 162 -107 419 -146 570
-38 151 -71 282 -73 290 -16 75 -68 186 -120 255 -86 112 -170 169 -415 282
-96 45 -215 100 -265 124 -49 23 -117 54 -150 70 -33 15 -127 60 -210 99 -470
225 -457 221 -617 202 -159 -19 -254 -24 -447 -24 -174 0 -389 9 -402 17 -11
7 -204 14 -224 8z"/>
</g>
</svg>
